# xmcd
#
# Track frame offsets:
#	150
#	15620
#	25307
#	41998
#	54450
#	67779
#	83734
#	98327
#	114744
#	123997
#	140050
#	153356
#	168684
#	180048
#	192305
#	203716
#	217066
#	233217
#	248837
#	260732
#	271630
#	290653
#	305430
#	320668
#	333156
#
# Disc length: 4626 seconds
# Revision: 0
# Processed by: cddbd v1.5.2PL0 Copyright (c) Steve Scherf et al.
# Submitted via: dBpowerAMP V12.0
#
DISCID=65121019
DTITLE=Ivo Mojzer - Deček Z Ulice
DYEAR=2001
DGENRE=Pop
TTITLE0=Ko Si Davi Se Zbudila
TTITLE1=Koledar Ljubezni
TTITLE2=Noč V Baru
TTITLE3=Prepevam Si V Dežju
TTITLE4=Polnočni Kavboj
TTITLE5=Cifra Mož
TTITLE6=Prišla Bi Spet Nazaj
TTITLE7=Deklica
TTITLE8=Ljubljena
TTITLE9=Lady
TTITLE10=Praviš Mi S Pogledi
TTITLE11=Deček Z Ulice
TTITLE12=Ezl'ek
TTITLE13=Slovo
TTITLE14=V Dnu Srca
TTITLE15=Videl Sem Te Jokati
TTITLE16=Ti Mi Pomeniš Vse
TTITLE17=Dvignimo Čaše Pr'jatli
TTITLE18=Samo Za Eno Noč
TTITLE19=Povej
TTITLE20=Ne, Ne Pozabim Te
TTITLE21=Poljubi
TTITLE22=Prijateljstvo
TTITLE23=Njene Črne Oči
TTITLE24=Irena
EXTD=
EXTT0=
EXTT1=
EXTT2=
EXTT3=
EXTT4=
EXTT5=
EXTT6=
EXTT7=
EXTT8=
EXTT9=
EXTT10=
EXTT11=
EXTT12=
EXTT13=
EXTT14=
EXTT15=
EXTT16=
EXTT17=
EXTT18=
EXTT19=
EXTT20=
EXTT21=
EXTT22=
EXTT23=
EXTT24=
PLAYORDER=
